<svg xmlns="http://www.w3.org/2000/svg" viewBox="0 0 417.07 460.93"><defs><style>.cls-1{fill:#004b85;}</style></defs><path class="cls-1" d="M211.5,189.5c15.75-7,31.55-14,47.77-19.85a387.33,387.33,0,0,1,48.85-14.25,193.94,193.94,0,0,1,28.67-4.12,185.22,185.22,0,0,1,44.36,2.51c4.15.74,8.27,1.62,12.35,2.71,29,9,55,27,65,55,8.22,23,7.43,48-4.53,69.5-3.38,6.09-8.38,12.06-13.14,17.17-6.12,6.57-13.66,11.37-21.17,16.08a89.42,89.42,0,0,1-25.16,10.92c-14.24,3.79-30.08,6.4-44.81,8.94a454.29,454.29,0,0,0-44.53,9.63c-7.83,2.17-16.32,4.1-24,6.76-12.36,4.28-23.85,8.77-35.91,13.88-19.69,8.34-41.41,19.11-57.76,33.12-7,6-12,13-20,17-1,0-1-2-1-3,0-2.1,4.09-6.6,5.28-8.35q2.78-4.11,5.77-8a163.48,163.48,0,0,1,12.65-14.67,201.84,201.84,0,0,1,22.16-19.24c8.74-6.72,17.25-13.76,26.41-19.92,9.34-6.29,19.54-10.85,29.47-16.1C280,319,291.94,313,304.5,308.5c14-5,28-9,41-15,6-3,10-9,12-15s.56-13-3.44-19c-1.21-1.81-3.74-3.45-5.41-4.85a57.18,57.18,0,0,0-6-4.44,64.93,64.93,0,0,0-15-6.8c-11.26-3.6-23.1-5.71-34.76-7.53a199.37,199.37,0,0,0-34.43-2.35A332.53,332.53,0,0,0,223,236.14c-11.85,1.49-23.55,3.81-35.21,6.4-1.43.32-2.86.62-4.28,1-20,5-39,11-57,22-12,8-20,16-29,27-1,1-2,0-2-1,8-22,21-39,39-55,9-6,16-13,25-18C177.5,207.5,193.5,197.5,211.5,189.5Z" transform="translate(-95.5 -150.89)"></path><path class="cls-1" d="M303,362.69a132.51,132.51,0,0,0-1.51,13.49c-1.07,15.86-1.56,31.57-3.68,47.36-1.15,8.54-2.5,17.06-3.94,25.58-.84,4.91-1.73,9.8-2.63,14.7-1.77,9.5-3,19.26-5.22,28.66-.73,3-.8,6.2-2,9.14-1.45,3.54-4.49,4.05-7.54,5.88a141.07,141.07,0,0,1-16.25,8.25C254.5,518.25,247,522,241,524c1.22-8,4.5-16.75,7.25-24.12S253.5,485,252.5,476.5a2.06,2.06,0,0,0-2-1.25c-.75,0-1.5.25-2,.25-4,2-8.75,3-12.88,4.38S228,483,226.5,486.5a106.45,106.45,0,0,0-5.38,18.62c-1.43,6.65-2.6,13.46-4.86,19.89-1.46,4.2-1.55,9-5.76,11.49a132.53,132.53,0,0,1-17.74,8.4c-5.94,2.45-11.45,5.26-17.12,8.27-3.61,1.91-7.24,3.79-10.85,5.73-1.82,1-3.65,2-5.45,3-1.24.7-3.37,2.61-4.84,2.61-1,0-1.25-.5-1.25-1.12s.25-1.38.25-1.88c9.5-23,19-47.25,24-71.88s5.5-49.62-3-74.12a95.79,95.79,0,0,1,20.38-17.38c7.37-4.87,15.12-9.12,22.62-13.62,2-1,4.5-2.5,6.62-3.38s3.88-1.12,4.38.38a98.57,98.57,0,0,1,5.12,26.12,213.45,213.45,0,0,1-.12,26.88,45.49,45.49,0,0,0,14.38-4.38c4.62-2.12,9.12-4.62,13.62-6.62,2-10,1.75-20.25,1.75-30.5S262,372.5,265,362.5c.57-1.91,2.74-3.23,4.75-4.17a54.19,54.19,0,0,1,9.92-3.5c3.77-.86,7.53-1.84,11.26-2.83,2.48-.66,7.43-2.25,11.26-2.25,1.08,0,1.83.88,2.13,2.2C304.85,354.37,303.18,361.67,303,362.69Z" transform="translate(-95.5 -150.89)"></path><path class="cls-1" d="M411.5,436.5c-16.47,24.7-34.8,45.24-56.17,65.74-20.41,19.58-41.13,39.18-57.91,62.07a197.81,197.81,0,0,0-16.87,27.14c-2.14,4.2-7.07,23-14.05,20-13-5.56,24-70.16,28.32-77.71,13-22.6,33.42-38.56,48.74-59.23,10.73-14.49,22.22-32.91,27.94-50.06,5-15,10-29,13-45,2-16,0-31-1-47,10-3,20-4,29-9,1,16,5,32,1,49,0,1,1,2,2,1,7-14,9.67-29,11.67-44,1-5,.19-14.55,4.33-18,5.79-4.82,6.48-4.48,12-10,5-5,10.67-12,13-16,.71-1.22,1,3,1,4a220.72,220.72,0,0,1-35,129c-2,3-3,6-5,9Z" transform="translate(-95.5 -150.89)"></path><path class="cls-1" d="M476.5,205.5c15.59,11.75,26.77,26.41,32.15,44.69,9.1,30.93,1.4,62.31-13.44,90-1.11,2.06-8.83,14.89-8.83,6.69,0-4.05-2.32-9-4.88-12.4,1.06,1.4-1.46,7.13-2.66,11.25-7.65,26.11-46.63,65.6-47.34,67.74,5-15,13-29,19-45a236.89,236.89,0,0,0,7.12-30c2-11,2.88-23,3.88-34,0-10-2.52-16-.92-25.89.75-4.59,6.92-19.63,6.92-25.36,4,2.4,9,9.25,13,13.25-1-10.75-12.67-25-12.67-31-1.61-11-.4-2.93-2.66-14.67,0-2-6.67-20.33-7.67-22.33,0-1,0-3,1-3C465.5,197.5,470.74,201.16,476.5,205.5Z" transform="translate(-95.5 -150.89)"></path><path class="cls-1" d="M371.5,350.5c-1-5-5-8-10-9-10-2-20,0-29,4-12,6-18,21-21,35-6,40-15,78-19,118,10-4,20-8,28-14,2-1,2-5,3-8,4-12,8-35,8-35s8-4.71,13-6c3.25,0,2,1,2,2-2,11-4,20-5,31,3,0,5.64-4.5,5.64-4.5s3.91-5.7,5.67-8.86c1.9-3.4,4.08-7,5.9-10.64,4-8,8.08-16,10.79-25C376.51,396.2,377.5,374.5,371.5,350.5Zm-23,46c-3,0-9.29,3-12.29,3,0-2.73,2.74-8.05,3.6-10.7l.18-.59c1.81-6.31,4.36-12.35,5.36-18.84C346.81,378.32,349.48,387.47,348.48,396.47Z" transform="translate(-95.5 -150.89)"></path></svg>